<?xml version="1.0" encoding="UTF-8"?>
<!DOCTYPE svg PUBLIC "-//W3C//DTD SVG 1.1//EN" "http://www.w3.org/Graphics/SVG/1.1/DTD/svg11.dtd">
<svg xmlns="http://www.w3.org/2000/svg" version="1.1" width="512px" height="512px" style="shape-rendering:geometricPrecision; text-rendering:geometricPrecision; image-rendering:optimizeQuality; fill-rule:evenodd; clip-rule:evenodd" xmlns:xlink="http://www.w3.org/1999/xlink">
<g><path style="opacity:0.98" fill="#3863cc" d="M 138.5,27.5 C 170.297,26.1517 197.964,35.985 221.5,57C 309.167,57.3333 396.833,57.6667 484.5,58C 491.566,58.4469 496.399,61.9469 499,68.5C 499.667,177.5 499.667,286.5 499,395.5C 497.193,400.641 493.693,404.141 488.5,406C 456.502,406.5 424.502,406.667 392.5,406.5C 392.667,430.169 392.5,453.836 392,477.5C 389.674,481.417 386.174,483.417 381.5,483.5C 337.346,483.346 293.18,483.346 249,483.5C 247.667,482.833 246.333,482.167 245,481.5C 244.654,479.782 244.154,478.115 243.5,476.5C 243.5,468.5 243.5,460.5 243.5,452.5C 174.836,451.667 106.169,451.167 37.5,451C 35.9391,450.682 34.7724,449.849 34,448.5C 33.5001,434.504 33.3334,420.504 33.5,406.5C 23.4162,408.21 16.2495,404.543 12,395.5C 11.3333,286.5 11.3333,177.5 12,68.5C 13.8333,64 17,60.8333 21.5,59C 35.4539,57.7576 49.4539,57.091 63.5,57C 85.5629,39.5922 110.563,29.7589 138.5,27.5 Z"/></g>
<g><path style="opacity:1" fill="#4670c6" d="M 145.5,35.5 C 177.187,36.2549 203.687,48.5883 225,72.5C 233.949,89.0686 233.615,105.402 224,121.5C 210.137,140.028 192.304,153.194 170.5,161C 137.576,173.281 104.243,174.614 70.5,165C 48.0166,156.513 31.1833,141.68 20,120.5C 19.3333,119.167 19.3333,117.833 20,116.5C 39.5767,84.921 66.0767,61.0877 99.5,45C 114.466,39.3444 129.8,36.1778 145.5,35.5 Z"/></g>
<g><path style="opacity:1" fill="#466fcf" d="M 484.5,66.5 C 399.665,66.1673 314.998,66.5007 230.5,67.5C 229.957,67.44 229.624,67.1067 229.5,66.5C 314.666,65.168 399.666,65.168 484.5,66.5 Z"/></g>
<g><path style="opacity:1" fill="#dde9fb" d="M 24.5,66.5 C 33.8393,66.3335 43.1726,66.5002 52.5,67C 47.0319,71.4666 41.8653,76.3 37,81.5C 31.3333,88.5 25.6667,95.5 20,102.5C 19.3333,91.8333 19.3333,81.1667 20,70.5C 21.3968,68.9297 22.8968,67.5964 24.5,66.5 Z"/></g>
<g><path style="opacity:1" fill="#deeafb" d="M 230.5,67.5 C 314.998,66.5007 399.665,66.1673 484.5,66.5C 487.195,66.933 489.362,68.2663 491,70.5C 491.667,178.167 491.667,285.833 491,393.5C 489.891,395.815 488.057,397.315 485.5,398C 454.502,398.5 423.502,398.667 392.5,398.5C 392.5,393.167 392.5,387.833 392.5,382.5C 417.502,382.667 442.502,382.5 467.5,382C 470.913,380.923 473.413,378.756 475,375.5C 475.667,280.167 475.667,184.833 475,89.5C 474.027,85.5936 471.527,83.427 467.5,83C 390.831,82.8333 314.164,82.3333 237.5,81.5C 236.19,76.2138 233.857,71.5471 230.5,67.5 Z"/></g>
<g><path style="opacity:1" fill="#a3c8fe" d="M 239.5,90.5 C 315.404,90.1684 391.238,90.5018 467,91.5C 467.667,185.5 467.667,279.5 467,373.5C 442.241,374.494 417.408,374.828 392.5,374.5C 392.667,351.164 392.5,327.831 392,304.5C 391.315,301.943 389.815,300.109 387.5,299C 341.833,298.333 296.167,298.333 250.5,299C 248,300.167 246.167,302 245,304.5C 244.833,317.513 244.333,330.513 243.5,343.5C 235.172,340.215 226.505,338.881 217.5,339.5C 217.338,333.506 214.838,328.839 210,325.5C 209.333,324.833 209.333,324.167 210,323.5C 236.067,308.329 253.234,286.329 261.5,257.5C 286.686,254.15 298.519,239.817 297,214.5C 294.77,205.272 289.77,197.938 282,192.5C 288.305,160.992 282.972,131.659 266,104.5C 259.579,94.8904 250.746,90.2237 239.5,90.5 Z"/></g>
<g><path style="opacity:1" fill="#4670c6" d="M 245.5,99.5 C 251.43,100.38 255.93,103.38 259,108.5C 275.404,133.772 280.07,160.438 273,188.5C 268.861,187.281 264.694,186.114 260.5,185C 254.5,180.667 248.5,176.333 242.5,172C 231.097,162.028 224.931,149.528 224,134.5C 232.795,125.241 238.129,114.241 240,101.5C 241.948,100.891 243.782,100.224 245.5,99.5 Z"/></g>
<g><path style="opacity:1" fill="#627ed0" d="M 312.5,176.5 C 310.631,178.635 309.964,181.302 310.5,184.5C 326.16,185.775 341.827,185.775 357.5,184.5C 357.5,181.833 357.5,179.167 357.5,176.5C 350.949,178.133 344.283,178.799 337.5,178.5C 337.5,165.5 337.5,152.5 337.5,139.5C 344.582,139.958 351.582,140.958 358.5,142.5C 358.5,139.833 358.5,137.167 358.5,134.5C 342.497,131.868 326.497,131.868 310.5,134.5C 310.336,137.187 310.503,139.854 311,142.5C 315.009,141.046 319.175,140.379 323.5,140.5C 319.966,142.091 314.966,143.091 308.5,143.5C 308.335,140.482 308.502,137.482 309,134.5C 310.067,133.809 311.234,133.309 312.5,133C 328.2,130.918 343.867,131.085 359.5,133.5C 359.5,136.833 359.5,140.167 359.5,143.5C 352.906,142.182 346.24,141.515 339.5,141.5C 339.5,153.5 339.5,165.5 339.5,177.5C 345.864,177.522 352.031,176.522 358,174.5C 359.57,177.633 359.903,180.967 359,184.5C 342.587,188.302 326.087,188.469 309.5,185C 308.549,181.943 308.216,178.777 308.5,175.5C 310.767,175.146 312.101,175.479 312.5,176.5 Z"/></g>
<g><path style="opacity:1" fill="#f5a7a8" d="M 312.5,176.5 C 312.842,177.338 313.508,177.672 314.5,177.5C 319.787,178.342 325.12,178.676 330.5,178.5C 330.5,165.833 330.5,153.167 330.5,140.5C 328.167,139.167 325.833,139.167 323.5,140.5C 319.175,140.379 315.009,141.046 311,142.5C 310.503,139.854 310.336,137.187 310.5,134.5C 326.497,131.868 342.497,131.868 358.5,134.5C 358.5,137.167 358.5,139.833 358.5,142.5C 351.582,140.958 344.582,139.958 337.5,139.5C 337.5,152.5 337.5,165.5 337.5,178.5C 344.283,178.799 350.949,178.133 357.5,176.5C 357.5,179.167 357.5,181.833 357.5,184.5C 341.827,185.775 326.16,185.775 310.5,184.5C 309.964,181.302 310.631,178.635 312.5,176.5 Z"/></g>
<g><path style="opacity:1" fill="#dbe7fb" d="M 19.5,136.5 C 22.6485,139.82 25.6485,143.32 28.5,147C 26.8035,162.608 27.4702,178.108 30.5,193.5C 26.0382,197.46 22.5382,202.126 20,207.5C 19.5,183.836 19.3334,160.169 19.5,136.5 Z"/></g>
<g><path style="opacity:1" fill="#4166cc" d="M 330.5,140.5 C 330.5,153.167 330.5,165.833 330.5,178.5C 325.12,178.676 319.787,178.342 314.5,177.5C 319.31,177.013 324.31,177.013 329.5,177.5C 329.171,164.989 329.505,152.655 330.5,140.5 Z"/></g>
<g><path style="opacity:1" fill="#f8cece" d="M 215.5,142.5 C 219.225,157.077 226.892,169.243 238.5,179C 245.5,184 252.5,189 259.5,194C 280.763,195.256 290.596,206.422 289,227.5C 283.988,242.487 273.488,249.653 257.5,249C 256.692,249.308 256.025,249.808 255.5,250.5C 245.174,288.993 220.841,313.826 182.5,325C 141.433,333.643 106.933,322.477 79,291.5C 69.9896,279.478 63.6563,266.144 60,251.5C 57.9338,248.868 55.4338,248.201 52.5,249.5C 30.7793,245.729 22.2793,233.062 27,211.5C 32.8685,199.973 42.3685,194.139 55.5,194C 56,193.5 56.5,193 57,192.5C 57.1358,184.438 57.8025,176.438 59,168.5C 70.494,174.219 82.6606,177.719 95.5,179C 135.903,182.649 172.903,173.316 206.5,151C 210,148.666 213,145.832 215.5,142.5 Z"/></g>
<g><path style="opacity:1" fill="#4670c6" d="M 35.5,154.5 C 40.435,157.587 45.2683,160.921 50,164.5C 49.9173,171.532 49.7506,178.865 49.5,186.5C 45.6224,186.719 41.9558,187.719 38.5,189.5C 35.1725,176.792 34.1725,165.125 35.5,154.5 Z"/></g>
<g><path style="opacity:1" fill="#3963cc" d="M 102.5,200.5 C 109.769,199.945 114.935,202.945 118,209.5C 118.667,218.833 118.667,228.167 118,237.5C 114.253,245.862 108.087,248.362 99.5,245C 96.8647,243.039 95.0314,240.539 94,237.5C 93.3333,228.167 93.3333,218.833 94,209.5C 95.6878,205.315 98.5212,202.315 102.5,200.5 Z"/></g>
<g><path style="opacity:1" fill="#3a63cc" d="M 205.5,200.5 C 213.019,200.177 218.186,203.51 221,210.5C 221.92,220.242 221.587,229.908 220,239.5C 216.155,245.667 210.655,247.834 203.5,246C 200.616,244.116 198.449,241.616 197,238.5C 196.333,228.833 196.333,219.167 197,209.5C 198.688,205.315 201.521,202.315 205.5,200.5 Z"/></g>
<g><path style="opacity:1" fill="#7985cb" d="M 405.5,222.5 C 393.187,221.656 380.854,221.323 368.5,221.5C 368.5,221.167 368.5,220.833 368.5,220.5C 381.518,219.139 394.518,219.473 407.5,221.5C 407.5,224.833 407.5,228.167 407.5,231.5C 403.162,231.378 402.828,231.045 406.5,230.5C 406.806,227.615 406.473,224.948 405.5,222.5 Z"/></g>
<g><path style="opacity:1" fill="#fee893" d="M 368.5,221.5 C 380.854,221.323 393.187,221.656 405.5,222.5C 405.5,224.833 405.5,227.167 405.5,229.5C 404.5,229.5 403.5,229.5 402.5,229.5C 390.268,227.255 377.935,226.922 365.5,228.5C 365.181,233.363 365.514,238.03 366.5,242.5C 376.319,243.494 386.319,243.827 396.5,243.5C 396.5,245.833 396.5,248.167 396.5,250.5C 386.5,250.5 376.5,250.5 366.5,250.5C 366.5,255.833 366.5,261.167 366.5,266.5C 375.848,267.73 385.181,267.73 394.5,266.5C 398.136,266.406 401.636,265.739 405,264.5C 405.769,267.099 405.602,269.599 404.5,272C 393.87,273.238 383.203,273.738 372.5,273.5C 367.807,273.46 363.141,273.127 358.5,272.5C 358.5,255.833 358.5,239.167 358.5,222.5C 361.807,221.949 365.14,221.616 368.5,221.5 Z"/></g>
<g><path style="opacity:1" fill="#3f66cd" d="M 368.5,220.5 C 368.5,220.833 368.5,221.167 368.5,221.5C 365.14,221.616 361.807,221.949 358.5,222.5C 358.5,239.167 358.5,255.833 358.5,272.5C 363.141,273.127 367.807,273.46 372.5,273.5C 372.5,273.833 372.5,274.167 372.5,274.5C 367.473,274.497 362.473,274.164 357.5,273.5C 357.5,256.167 357.5,238.833 357.5,221.5C 361.119,220.756 364.785,220.423 368.5,220.5 Z"/></g>
<g><path style="opacity:1" fill="#808bcd" d="M 402.5,229.5 C 391.035,229.625 379.368,229.625 367.5,229.5C 367.5,233.5 367.5,237.5 367.5,241.5C 377.5,241.5 387.5,241.5 397.5,241.5C 397.5,241.833 397.5,242.167 397.5,242.5C 387.167,242.5 376.833,242.5 366.5,242.5C 365.514,238.03 365.181,233.363 365.5,228.5C 377.935,226.922 390.268,227.255 402.5,229.5 Z"/></g>
<g><path style="opacity:1" fill="#dfeafb" d="M 19.5,235.5 C 23.3808,242.22 28.5474,247.886 35,252.5C 35.183,294.516 35.683,336.516 36.5,378.5C 34.7213,385.058 33.7213,391.725 33.5,398.5C 29.7267,398.737 26.0601,398.237 22.5,397C 21.2986,396.097 20.4652,394.931 20,393.5C 19.5,340.834 19.3333,288.168 19.5,235.5 Z"/></g>
<g><path style="opacity:1" fill="#af9ebf" d="M 366.5,242.5 C 376.833,242.5 387.167,242.5 397.5,242.5C 397.806,245.385 397.473,248.052 396.5,250.5C 396.5,248.167 396.5,245.833 396.5,243.5C 386.319,243.827 376.319,243.494 366.5,242.5 Z"/></g>
<g><path style="opacity:1" fill="#a3c8fe" d="M 43.5,256.5 C 47.0128,256.307 50.3462,256.974 53.5,258.5C 62.1273,286.948 79.1273,308.782 104.5,324C 103.392,326.112 101.892,327.946 100,329.5C 98.7353,332.461 97.5686,335.461 96.5,338.5C 74.4795,338.261 56.9795,346.927 44,364.5C 43.5,328.502 43.3333,292.502 43.5,256.5 Z"/></g>
<g><path style="opacity:1" fill="#4066cc" d="M 135.5,265.5 C 140.886,265.194 143.386,267.86 143,273.5C 150.5,281.495 159,282.661 168.5,277C 171.066,273.63 173.066,269.963 174.5,266C 178.486,264.891 180.486,266.391 180.5,270.5C 178.339,280.16 172.339,285.993 162.5,288C 152.11,289.761 143.61,286.594 137,278.5C 134.441,274.363 133.941,270.03 135.5,265.5 Z"/></g>
<g><path style="opacity:1" fill="#6075ca" d="M 397.5,241.5 C 398.479,244.625 398.813,247.958 398.5,251.5C 388.167,251.5 377.833,251.5 367.5,251.5C 367.2,256.099 367.533,260.599 368.5,265C 377.16,265.5 385.827,265.666 394.5,265.5C 394.5,265.833 394.5,266.167 394.5,266.5C 385.181,267.73 375.848,267.73 366.5,266.5C 366.5,261.167 366.5,255.833 366.5,250.5C 376.5,250.5 386.5,250.5 396.5,250.5C 397.473,248.052 397.806,245.385 397.5,242.5C 397.5,242.167 397.5,241.833 397.5,241.5 Z"/></g>
<g><path style="opacity:1" fill="#7283cd" d="M 372.5,274.5 C 372.5,274.167 372.5,273.833 372.5,273.5C 383.203,273.738 393.87,273.238 404.5,272C 405.602,269.599 405.769,267.099 405,264.5C 401.636,265.739 398.136,266.406 394.5,266.5C 394.5,266.167 394.5,265.833 394.5,265.5C 398.698,264.661 402.865,263.661 407,262.5C 407.499,266.152 407.665,269.818 407.5,273.5C 395.828,275.114 384.161,275.447 372.5,274.5 Z"/></g>
<g><path style="opacity:1" fill="#4671c6" d="M 252.5,306.5 C 256.5,306.5 260.5,306.5 264.5,306.5C 264.5,362.5 264.5,418.5 264.5,474.5C 260.5,474.5 256.5,474.5 252.5,474.5C 252.5,418.5 252.5,362.5 252.5,306.5 Z"/></g>
<g><path style="opacity:1" fill="#f8a7a7" d="M 272.5,306.5 C 309.833,306.5 347.167,306.5 384.5,306.5C 384.5,362.5 384.5,418.5 384.5,474.5C 347.167,474.5 309.833,474.5 272.5,474.5C 272.5,418.5 272.5,362.5 272.5,306.5 Z"/></g>
<g><path style="opacity:1" fill="#4670c8" d="M 409.5,307.5 C 413.182,307.335 416.848,307.501 420.5,308C 428.125,320.083 435.625,332.25 443,344.5C 443.5,332.171 443.667,319.838 443.5,307.5C 448.862,307.472 454.195,307.806 459.5,308.5C 459.665,312.182 459.499,315.848 459,319.5C 457.301,318.594 455.467,318.261 453.5,318.5C 453.5,329.5 453.5,340.5 453.5,351.5C 455.262,351.643 456.929,351.309 458.5,350.5C 459.487,353.768 459.82,357.102 459.5,360.5C 454.115,361.206 448.781,361.706 443.5,362C 436.126,349.417 428.626,336.917 421,324.5C 420.5,337.162 420.333,349.829 420.5,362.5C 415.18,361.761 409.846,361.094 404.5,360.5C 404.5,357.167 404.5,353.833 404.5,350.5C 406.262,350.357 407.929,350.691 409.5,351.5C 410.499,340.186 410.832,328.853 410.5,317.5C 408.533,317.261 406.699,317.594 405,318.5C 404.502,315.183 404.335,311.85 404.5,308.5C 406.415,308.784 408.081,308.451 409.5,307.5 Z"/></g>
<g><path style="opacity:1" fill="#3a63cc" d="M 285.5,321.5 C 313.835,321.333 342.169,321.5 370.5,322C 372.667,322.833 374.167,324.333 375,326.5C 375.667,337.167 375.667,347.833 375,358.5C 373.786,360.049 372.286,361.215 370.5,362C 342.167,362.667 313.833,362.667 285.5,362C 283.622,360.457 282.122,358.624 281,356.5C 280.333,346.833 280.333,337.167 281,327.5C 282.332,325.34 283.832,323.34 285.5,321.5 Z"/></g>
<g><path style="opacity:1" fill="#f8cfce" d="M 289.5,329.5 C 315.5,329.5 341.5,329.5 367.5,329.5C 367.5,337.833 367.5,346.167 367.5,354.5C 341.5,354.5 315.5,354.5 289.5,354.5C 289.5,346.167 289.5,337.833 289.5,329.5 Z"/></g>
<g><path style="opacity:1" fill="#dde9fb" d="M 106.5,333.5 C 121.791,338.309 136.791,343.975 151.5,350.5C 145.156,361.865 138.323,372.865 131,383.5C 129.739,383.241 128.739,382.574 128,381.5C 120.584,368.999 112.917,356.665 105,344.5C 104.744,340.754 105.244,337.087 106.5,333.5 Z"/></g>
<g><path style="opacity:1" fill="#dde9fb" d="M 204.5,333.5 C 205.822,333.33 206.989,333.663 208,334.5C 209.318,337.43 209.985,340.43 210,343.5C 201.749,356.333 193.749,369.333 186,382.5C 184.951,383.517 183.784,383.684 182.5,383C 175.788,372.413 169.455,361.58 163.5,350.5C 177.338,345.005 191.005,339.339 204.5,333.5 Z"/></g>
<g><path style="opacity:1" fill="#edc6cb" d="M 132.5,334.5 C 132.735,333.903 133.235,333.57 134,333.5C 141.228,335.26 148.561,336.26 156,336.5C 163.856,335.848 171.69,335.348 179.5,335C 172.052,337.635 164.719,340.468 157.5,343.5C 149.225,340.298 140.892,337.298 132.5,334.5 Z"/></g>
<g><path style="opacity:1" fill="#6bdcdd" d="M 84.5,347.5 C 88.8461,347.334 93.1794,347.501 97.5,348C 106.125,361.416 114.625,374.916 123,388.5C 123.903,389.701 125.069,390.535 126.5,391C 129.907,391.482 133.24,391.482 136.5,391C 139.097,396.195 142.43,400.862 146.5,405C 154.387,409.828 162.054,409.494 169.5,404C 172.667,399.5 175.833,395 179,390.5C 184.634,392.627 189.301,391.293 193,386.5C 200.583,373.666 208.416,360.999 216.5,348.5C 225.846,346.868 234.846,348.035 243.5,352C 244.495,382.093 244.829,412.26 244.5,442.5C 176.833,442.5 109.167,442.5 41.5,442.5C 41.3334,427.163 41.5001,411.83 42,396.5C 44.2954,369.714 58.4621,353.38 84.5,347.5 Z"/></g>
<g><path style="opacity:1" fill="#788cd2" d="M 289.5,329.5 C 289.5,337.833 289.5,346.167 289.5,354.5C 315.5,354.5 341.5,354.5 367.5,354.5C 341.339,355.498 315.005,355.831 288.5,355.5C 288.174,346.651 288.507,337.984 289.5,329.5 Z"/></g>
<g><path style="opacity:1" fill="#dce8fb" d="M 156.5,356.5 C 162.892,364.93 168.559,373.93 173.5,383.5C 162.26,406.219 151.593,406.052 141.5,383C 146.897,374.371 151.897,365.538 156.5,356.5 Z"/></g>
</svg>
